<svg width="720" height="820" viewBox="0 0 720 820" fill="none" xmlns="http://www.w3.org/2000/svg">
  <defs>
    <linearGradient id="bg" x1="92" y1="88" x2="626" y2="732" gradientUnits="userSpaceOnUse">
      <stop stop-color="#DCEBFF"/>
      <stop offset="1" stop-color="#FFF8E6"/>
    </linearGradient>
    <linearGradient id="card" x1="166" y1="186" x2="550" y2="650" gradientUnits="userSpaceOnUse">
      <stop stop-color="#FFFFFF" stop-opacity="0.94"/>
      <stop offset="1" stop-color="#EEF4FF" stop-opacity="0.9"/>
    </linearGradient>
    <linearGradient id="accent" x1="230" y1="236" x2="509" y2="585" gradientUnits="userSpaceOnUse">
      <stop stop-color="#0A66FF"/>
      <stop offset="1" stop-color="#67B3FF"/>
    </linearGradient>
  </defs>
  <rect width="720" height="820" rx="44" fill="url(#bg)"/>
  <circle cx="128" cy="126" r="74" fill="#C6DEFF" fill-opacity="0.7"/>
  <circle cx="612" cy="182" r="102" fill="#FFE2A6" fill-opacity="0.6"/>
  <circle cx="570" cy="690" r="120" fill="#D7ECFF" fill-opacity="0.64"/>
  <rect x="98" y="102" width="524" height="616" rx="36" fill="url(#card)" stroke="white" stroke-opacity="0.84" stroke-width="3"/>
  <path d="M132 246H588" stroke="#D1DDF0" stroke-width="2" stroke-dasharray="8 10"/>
  <path d="M132 604H588" stroke="#D1DDF0" stroke-width="2" stroke-dasharray="8 10"/>
  <circle cx="360" cy="308" r="98" fill="url(#accent)"/>
  <path d="M248 524C248 444.471 312.471 380 392 380H328C407.529 380 472 444.471 472 524V572H248V524Z" fill="#172033"/>
  <circle cx="360" cy="318" r="76" fill="#172033"/>
  <circle cx="360" cy="292" r="58" fill="#FFE0BF"/>
  <path d="M300 300C300 259.131 333.131 226 374 226H382C422.869 226 456 259.131 456 300V322H300V300Z" fill="#172033"/>
  <path d="M290 598H430" stroke="#0A66FF" stroke-width="12" stroke-linecap="round"/>
  <path d="M190 164H276" stroke="#0A66FF" stroke-width="8" stroke-linecap="round"/>
  <path d="M442 164H530" stroke="#0A66FF" stroke-width="8" stroke-linecap="round"/>
  <circle cx="178" cy="164" r="14" fill="#0A66FF"/>
  <circle cx="542" cy="164" r="14" fill="#0A66FF"/>
  <path d="M190 654H530" stroke="#B6CBE8" stroke-width="10" stroke-linecap="round"/>
  <path d="M214 688H506" stroke="#D9E5F4" stroke-width="10" stroke-linecap="round"/>
</svg>
