<svg width="1200" height="900" viewBox="0 0 1200 900" fill="none" xmlns="http://www.w3.org/2000/svg">
  <rect width="1200" height="900" rx="48" fill="#020617"/>
  <rect x="78" y="78" width="1044" height="744" rx="38" fill="url(#paint0_linear)"/>
  <rect x="136" y="144" width="928" height="612" rx="34" fill="#08111F"/>
  <circle cx="600" cy="450" r="164" fill="url(#paint1_radial)"/>
  <circle cx="600" cy="450" r="96" stroke="#F8FAFC" stroke-opacity="0.5" stroke-width="12" stroke-dasharray="14 16"/>
  <circle cx="600" cy="450" r="26" fill="#22D3EE"/>
  <path d="M600 260V188" stroke="#22D3EE" stroke-width="16" stroke-linecap="round"/>
  <path d="M600 712V640" stroke="#22D3EE" stroke-width="16" stroke-linecap="round"/>
  <path d="M790 450H862" stroke="#22D3EE" stroke-width="16" stroke-linecap="round"/>
  <path d="M338 450H410" stroke="#22D3EE" stroke-width="16" stroke-linecap="round"/>
  <path d="M733.74 316.26L784.66 265.34" stroke="#3B82F6" stroke-width="16" stroke-linecap="round"/>
  <path d="M415.34 634.66L466.26 583.74" stroke="#3B82F6" stroke-width="16" stroke-linecap="round"/>
  <path d="M733.74 583.74L784.66 634.66" stroke="#9333EA" stroke-width="16" stroke-linecap="round"/>
  <path d="M415.34 265.34L466.26 316.26" stroke="#9333EA" stroke-width="16" stroke-linecap="round"/>
  <rect x="182" y="186" width="236" height="110" rx="28" fill="#0F172A" fill-opacity="0.88"/>
  <rect x="782" y="186" width="236" height="110" rx="28" fill="#0F172A" fill-opacity="0.88"/>
  <rect x="182" y="604" width="236" height="110" rx="28" fill="#0F172A" fill-opacity="0.88"/>
  <rect x="782" y="604" width="236" height="110" rx="28" fill="#0F172A" fill-opacity="0.88"/>
  <defs>
    <linearGradient id="paint0_linear" x1="132" y1="116" x2="1048" y2="812" gradientUnits="userSpaceOnUse">
      <stop stop-color="#0F172A"/>
      <stop offset="1" stop-color="#101A32"/>
    </linearGradient>
    <radialGradient id="paint1_radial" cx="0" cy="0" r="1" gradientUnits="userSpaceOnUse" gradientTransform="translate(600 450) rotate(90) scale(164)">
      <stop stop-color="#22D3EE" stop-opacity="0.35"/>
      <stop offset="0.62" stop-color="#3B82F6" stop-opacity="0.2"/>
      <stop offset="1" stop-color="#9333EA" stop-opacity="0.1"/>
    </radialGradient>
  </defs>
</svg>
